{
	"asset":{
		"generator":"Khronos glTF Blender I/O v3.5.30",
		"version":"2.0"
	},
	"scene":0,
	"scenes":[
		{
			"name":"Scene",
			"nodes":[
				0
			]
		}
	],
	"nodes":[
		{
			"mesh":0,
			"name":"Plane",
			"scale":[
				0.946681559085846,
				1,
				1
			],
			"translation":[
				0.20323467254638672,
				0,
				0
			]
		}
	],
	"materials":[
		{
			"doubleSided":true,
			"name":"Material.001",
			"pbrMetallicRoughness":{
				"baseColorTexture":{
					"index":0
				},
				"metallicFactor":0,
				"roughnessFactor":0.5
			}
		}
	],
	"meshes":[
		{
			"name":"Plane",
			"primitives":[
				{
					"attributes":{
						"POSITION":0,
						"TEXCOORD_0":1,
						"NORMAL":2
					},
					"indices":3,
					"material":0
				}
			]
		}
	],
	"textures":[
		{
			"sampler":0,
			"source":0
		}
	],
	"images":[
		{
			"bufferView":4,
			"mimeType":"image/png",
			"name":"john"
		}
	],
	"accessors":[
		{
			"bufferView":0,
			"componentType":5126,
			"count":15887,
			"max":[
				0.84375,
				-0.16841751337051392,
				0.9921706914901733
			],
			"min":[
				-0.9649425745010376,
				-0.2779155969619751,
				-0.9688172340393066
			],
			"type":"VEC3"
		},
		{
			"bufferView":1,
			"componentType":5126,
			"count":15887,
			"type":"VEC2"
		},
		{
			"bufferView":2,
			"componentType":5126,
			"count":15887,
			"type":"VEC3"
		},
		{
			"bufferView":3,
			"componentType":5123,
			"count":30522,
			"type":"SCALAR"
		}
	],
	"bufferViews":[
		{
			"buffer":0,
			"byteLength":190644,
			"byteOffset":0,
			"target":34962
		},
		{
			"buffer":0,
			"byteLength":127096,
			"byteOffset":190644,
			"target":34962
		},
		{
			"buffer":0,
			"byteLength":190644,
			"byteOffset":317740,
			"target":34962
		},
		{
			"buffer":0,
			"byteLength":61044,
			"byteOffset":508384,
			"target":34963
		},
		{
			"buffer":0,
			"byteLength":154256,
			"byteOffset":569428
		}
	],
	"samplers":[
		{
			"magFilter":9729,
			"minFilter":9987
		}
	],
	"buffers":[
		{
			"byteLength":723684,
			"uri":"data:application/octet-stream;base64,"
		}
	]
}
