{
	"asset":{
		"generator":"Khronos glTF Blender I/O v3.5.30",
		"version":"2.0"
	},
	"scene":0,
	"scenes":[
		{
			"name":"Scene",
			"nodes":[
				0
			]
		}
	],
	"nodes":[
		{
			"mesh":0,
			"name":"Plane"
		}
	],
	"materials":[
		{
			"doubleSided":true,
			"name":"Material.001",
			"pbrMetallicRoughness":{
				"baseColorTexture":{
					"index":0
				},
				"metallicFactor":0,
				"roughnessFactor":0.5
			}
		}
	],
	"meshes":[
		{
			"name":"Plane",
			"primitives":[
				{
					"attributes":{
						"POSITION":0,
						"TEXCOORD_0":1,
						"NORMAL":2
					},
					"indices":3,
					"material":0
				}
			]
		}
	],
	"textures":[
		{
			"sampler":0,
			"source":0
		}
	],
	"images":[
		{
			"bufferView":4,
			"mimeType":"image/png",
			"name":"Question_mark_(black).svg"
		}
	],
	"accessors":[
		{
			"bufferView":0,
			"componentType":5126,
			"count":1844,
			"max":[
				0.742268979549408,
				-0.06867388635873795,
				0.8674315214157104
			],
			"min":[
				-0.7353515625,
				-0.22184370458126068,
				-0.8674317598342896
			],
			"type":"VEC3"
		},
		{
			"bufferView":1,
			"componentType":5126,
			"count":1844,
			"type":"VEC2"
		},
		{
			"bufferView":2,
			"componentType":5126,
			"count":1844,
			"type":"VEC3"
		},
		{
			"bufferView":3,
			"componentType":5123,
			"count":2862,
			"type":"SCALAR"
		}
	],
	"bufferViews":[
		{
			"buffer":0,
			"byteLength":22128,
			"byteOffset":0,
			"target":34962
		},
		{
			"buffer":0,
			"byteLength":14752,
			"byteOffset":22128,
			"target":34962
		},
		{
			"buffer":0,
			"byteLength":22128,
			"byteOffset":36880,
			"target":34962
		},
		{
			"buffer":0,
			"byteLength":5724,
			"byteOffset":59008,
			"target":34963
		},
		{
			"buffer":0,
			"byteLength":9440,
			"byteOffset":64732
		}
	],
	"samplers":[
		{
			"magFilter":9729,
			"minFilter":9987
		}
	],
	"buffers":[
		{
			"byteLength":74172,
			"uri":"data:application/octet-stream;base64,"
		}
	]
}
