{
	"asset":{
		"generator":"Khronos glTF Blender I/O v3.5.30",
		"version":"2.0"
	},
	"scene":0,
	"scenes":[
		{
			"name":"Scene",
			"nodes":[
				0,
				1
			]
		}
	],
	"nodes":[
		{
			"mesh":0,
			"name":"Plane",
			"scale":[
				0.8315975666046143,
				0.33281195163726807,
				1.5087918043136597
			],
			"translation":[
				0,
				0.0968543142080307,
				0
			]
		},
		{
			"mesh":1,
			"name":"Phone",
			"scale":[
				0.9885537624359131,
				0.05409933254122734,
				2.054806709289551
			],
			"translation":[
				0,
				0.04137103632092476,
				0
			]
		}
	],
	"materials":[
		{
			"doubleSided":true,
			"name":"Material",
			"pbrMetallicRoughness":{
				"baseColorTexture":{
					"index":0
				},
				"metallicFactor":0,
				"roughnessFactor":0.5
			}
		},
		{
			"doubleSided":true,
			"name":"Cadre",
			"pbrMetallicRoughness":{}
		},
		{
			"doubleSided":true,
			"name":"Aluminium",
			"pbrMetallicRoughness":{}
		},
		{
			"doubleSided":true,
			"name":"Camara",
			"pbrMetallicRoughness":{}
		},
		{
			"doubleSided":true,
			"name":"Red",
			"pbrMetallicRoughness":{}
		},
		{
			"doubleSided":true,
			"name":"Glass",
			"pbrMetallicRoughness":{}
		},
		{
			"doubleSided":true,
			"name":"Srew",
			"pbrMetallicRoughness":{}
		},
		{
			"doubleSided":true,
			"name":"SE",
			"pbrMetallicRoughness":{}
		}
	],
	"meshes":[
		{
			"name":"Plane",
			"primitives":[
				{
					"attributes":{
						"POSITION":0,
						"TEXCOORD_0":1,
						"NORMAL":2
					},
					"indices":3,
					"material":0
				}
			]
		},
		{
			"name":"Cube",
			"primitives":[
				{
					"attributes":{
						"POSITION":4,
						"TEXCOORD_0":5,
						"NORMAL":6
					},
					"indices":7,
					"material":1
				},
				{
					"attributes":{
						"POSITION":8,
						"TEXCOORD_0":9,
						"NORMAL":10
					},
					"indices":11,
					"material":2
				},
				{
					"attributes":{
						"POSITION":12,
						"TEXCOORD_0":13,
						"NORMAL":14
					},
					"indices":15,
					"material":3
				},
				{
					"attributes":{
						"POSITION":16,
						"TEXCOORD_0":17,
						"NORMAL":18
					},
					"indices":19,
					"material":4
				},
				{
					"attributes":{
						"POSITION":20,
						"TEXCOORD_0":21,
						"NORMAL":22
					},
					"indices":23,
					"material":5
				},
				{
					"attributes":{
						"POSITION":24,
						"TEXCOORD_0":25,
						"NORMAL":26
					},
					"indices":27,
					"material":6
				},
				{
					"attributes":{
						"POSITION":28,
						"TEXCOORD_0":29,
						"NORMAL":30
					},
					"indices":31,
					"material":7
				}
			]
		}
	],
	"textures":[
		{
			"sampler":0,
			"source":0
		}
	],
	"images":[
		{
			"bufferView":4,
			"mimeType":"image/png",
			"name":"qq"
		}
	],
	"accessors":[
		{
			"bufferView":0,
			"componentType":5126,
			"count":4,
			"max":[
				1,
				0,
				1
			],
			"min":[
				-1,
				0,
				-1
			],
			"type":"VEC3"
		},
		{
			"bufferView":1,
			"componentType":5126,
			"count":4,
			"type":"VEC2"
		},
		{
			"bufferView":2,
			"componentType":5126,
			"count":4,
			"type":"VEC3"
		},
		{
			"bufferView":3,
			"componentType":5123,
			"count":6,
			"type":"SCALAR"
		},
		{
			"bufferView":5,
			"componentType":5126,
			"count":795,
			"max":[
				0.97457355260849,
				1.0000005960464478,
				0.9988537430763245
			],
			"min":[
				-0.9750432968139648,
				-1.0074023008346558,
				-0.9998881220817566
			],
			"type":"VEC3"
		},
		{
			"bufferView":6,
			"componentType":5126,
			"count":795,
			"type":"VEC2"
		},
		{
			"bufferView":7,
			"componentType":5126,
			"count":795,
			"type":"VEC3"
		},
		{
			"bufferView":8,
			"componentType":5123,
			"count":1761,
			"type":"SCALAR"
		},
		{
			"bufferView":9,
			"componentType":5126,
			"count":3136,
			"max":[
				0.9970280528068542,
				1.0000004768371582,
				1.0124106407165527
			],
			"min":[
				-1.019832730293274,
				-1.0000015497207642,
				-1.0169681310653687
			],
			"type":"VEC3"
		},
		{
			"bufferView":10,
			"componentType":5126,
			"count":3136,
			"type":"VEC2"
		},
		{
			"bufferView":11,
			"componentType":5126,
			"count":3136,
			"type":"VEC3"
		},
		{
			"bufferView":12,
			"componentType":5123,
			"count":5115,
			"type":"SCALAR"
		},
		{
			"bufferView":13,
			"componentType":5126,
			"count":307,
			"max":[
				0.7953908443450928,
				-0.8466640710830688,
				-0.8511831164360046
			],
			"min":[
				0.5748648047447205,
				-1,
				-0.9568193554878235
			],
			"type":"VEC3"
		},
		{
			"bufferView":14,
			"componentType":5126,
			"count":307,
			"type":"VEC2"
		},
		{
			"bufferView":15,
			"componentType":5126,
			"count":307,
			"type":"VEC3"
		},
		{
			"bufferView":16,
			"componentType":5123,
			"count":333,
			"type":"SCALAR"
		},
		{
			"bufferView":17,
			"componentType":5126,
			"count":8,
			"max":[
				-0.9790509939193726,
				-0.1038694754242897,
				-0.6370653510093689
			],
			"min":[
				-0.9909663200378418,
				-0.40999653935432434,
				-0.7354101538658142
			],
			"type":"VEC3"
		},
		{
			"bufferView":18,
			"componentType":5126,
			"count":8,
			"type":"VEC2"
		},
		{
			"bufferView":19,
			"componentType":5126,
			"count":8,
			"type":"VEC3"
		},
		{
			"bufferView":20,
			"componentType":5123,
			"count":12,
			"type":"SCALAR"
		},
		{
			"bufferView":21,
			"componentType":5126,
			"count":4,
			"max":[
				0.8485701084136963,
				1,
				0.730216920375824
			],
			"min":[
				-0.8594598770141602,
				0.9999999403953552,
				-0.7331310510635376
			],
			"type":"VEC3"
		},
		{
			"bufferView":22,
			"componentType":5126,
			"count":4,
			"type":"VEC2"
		},
		{
			"bufferView":23,
			"componentType":5126,
			"count":4,
			"type":"VEC3"
		},
		{
			"bufferView":24,
			"componentType":5123,
			"count":6,
			"type":"SCALAR"
		},
		{
			"bufferView":25,
			"componentType":5126,
			"count":52,
			"max":[
				0.2595406770706177,
				0.11587253957986832,
				1.0130380392074585
			],
			"min":[
				-0.25643691420555115,
				-0.3510857820510864,
				1.0031230449676514
			],
			"type":"VEC3"
		},
		{
			"bufferView":26,
			"componentType":5126,
			"count":52,
			"type":"VEC2"
		},
		{
			"bufferView":27,
			"componentType":5126,
			"count":52,
			"type":"VEC3"
		},
		{
			"bufferView":28,
			"componentType":5123,
			"count":258,
			"type":"SCALAR"
		},
		{
			"bufferView":29,
			"componentType":5126,
			"count":329,
			"max":[
				0.21730981767177582,
				-0.9987301230430603,
				0.5646327137947083
			],
			"min":[
				-0.18878614902496338,
				-1,
				0.4155372977256775
			],
			"type":"VEC3"
		},
		{
			"bufferView":30,
			"componentType":5126,
			"count":329,
			"type":"VEC2"
		},
		{
			"bufferView":31,
			"componentType":5126,
			"count":329,
			"type":"VEC3"
		},
		{
			"bufferView":32,
			"componentType":5123,
			"count":600,
			"type":"SCALAR"
		}
	],
	"bufferViews":[
		{
			"buffer":0,
			"byteLength":48,
			"byteOffset":0,
			"target":34962
		},
		{
			"buffer":0,
			"byteLength":32,
			"byteOffset":48,
			"target":34962
		},
		{
			"buffer":0,
			"byteLength":48,
			"byteOffset":80,
			"target":34962
		},
		{
			"buffer":0,
			"byteLength":12,
			"byteOffset":128,
			"target":34963
		},
		{
			"buffer":0,
			"byteLength":124492,
			"byteOffset":140
		},
		{
			"buffer":0,
			"byteLength":9540,
			"byteOffset":124632,
			"target":34962
		},
		{
			"buffer":0,
			"byteLength":6360,
			"byteOffset":134172,
			"target":34962
		},
		{
			"buffer":0,
			"byteLength":9540,
			"byteOffset":140532,
			"target":34962
		},
		{
			"buffer":0,
			"byteLength":3522,
			"byteOffset":150072,
			"target":34963
		},
		{
			"buffer":0,
			"byteLength":37632,
			"byteOffset":153596,
			"target":34962
		},
		{
			"buffer":0,
			"byteLength":25088,
			"byteOffset":191228,
			"target":34962
		},
		{
			"buffer":0,
			"byteLength":37632,
			"byteOffset":216316,
			"target":34962
		},
		{
			"buffer":0,
			"byteLength":10230,
			"byteOffset":253948,
			"target":34963
		},
		{
			"buffer":0,
			"byteLength":3684,
			"byteOffset":264180,
			"target":34962
		},
		{
			"buffer":0,
			"byteLength":2456,
			"byteOffset":267864,
			"target":34962
		},
		{
			"buffer":0,
			"byteLength":3684,
			"byteOffset":270320,
			"target":34962
		},
		{
			"buffer":0,
			"byteLength":666,
			"byteOffset":274004,
			"target":34963
		},
		{
			"buffer":0,
			"byteLength":96,
			"byteOffset":274672,
			"target":34962
		},
		{
			"buffer":0,
			"byteLength":64,
			"byteOffset":274768,
			"target":34962
		},
		{
			"buffer":0,
			"byteLength":96,
			"byteOffset":274832,
			"target":34962
		},
		{
			"buffer":0,
			"byteLength":24,
			"byteOffset":274928,
			"target":34963
		},
		{
			"buffer":0,
			"byteLength":48,
			"byteOffset":274952,
			"target":34962
		},
		{
			"buffer":0,
			"byteLength":32,
			"byteOffset":275000,
			"target":34962
		},
		{
			"buffer":0,
			"byteLength":48,
			"byteOffset":275032,
			"target":34962
		},
		{
			"buffer":0,
			"byteLength":12,
			"byteOffset":275080,
			"target":34963
		},
		{
			"buffer":0,
			"byteLength":624,
			"byteOffset":275092,
			"target":34962
		},
		{
			"buffer":0,
			"byteLength":416,
			"byteOffset":275716,
			"target":34962
		},
		{
			"buffer":0,
			"byteLength":624,
			"byteOffset":276132,
			"target":34962
		},
		{
			"buffer":0,
			"byteLength":516,
			"byteOffset":276756,
			"target":34963
		},
		{
			"buffer":0,
			"byteLength":3948,
			"byteOffset":277272,
			"target":34962
		},
		{
			"buffer":0,
			"byteLength":2632,
			"byteOffset":281220,
			"target":34962
		},
		{
			"buffer":0,
			"byteLength":3948,
			"byteOffset":283852,
			"target":34962
		},
		{
			"buffer":0,
			"byteLength":1200,
			"byteOffset":287800,
			"target":34963
		}
	],
	"samplers":[
		{
			"magFilter":9729,
			"minFilter":9987
		}
	],
	"buffers":[
		{
			"byteLength":289000,
			"uri":"data:application/octet-stream;base64,"
		}
	]
}
